# xmcd CD database file
#
# Track frame offsets:
#	182
#	13087
#	17537
#	32550
#	47067
#	61525
#	75025
#	88505
#	102142
#	115830
#	131705
#	145697
#	155960
#	168667
#	195687
#	209337
#	220112
#	229652
#	244340
#	258037
#	280327
#	305640
#	317180
#
# Disc length: 4385 seconds
#
# Revision: 0
# Processed by: cddbd v1.5PL3 Copyright (c) Steve Scherf et al.
# Submitted via: CDex 1.50
#
DISCID=36111f17
DTITLE=Variou - La Route du Blues (1/3)
DYEAR=1995
DGENRE=Blues
TTITLE0=Muddy Waters - Louisiana Blues
TTITLE1=Leadbelly - Black Betty
TTITLE2=Bo Carter - Corrine, Corrina
TTITLE3=Memphis Minnie - When the Levee Breaks
TTITLE4=Charley Patton - A Spoonfull Blues
TTITLE5=bessie Smith - Nobody Knows When You're Down and Out
TTITLE6=Robert Johnson - They're Red Hot
TTITLE7=Blind lemon Jefferson - Matchbox Blues
TTITLE8=Robert Johnson - Sweet Home Chicago
TTITLE9=Memphis Jub Band - Memphis Jug Blues
TTITLE10=Big Bill Broonzy - Worrying You off my Mind
TTITLE11=James Son Thomas - European Country
TTITLE12=John Lee Hooker - Hobo Blues
TTITLE13=Big jack Johnson - Ice Storm Blues
TTITLE14=Slim Harpo - I'm a King Bee
TTITLE15=Fats Domino - Walkin'  to New Orleans
TTITLE16=Professor Longhair - Crawfish Fiesta
TTITLE17=Champion Jack Dupree - Georgiana
TTITLE18=T-Bone Walker - Stormy Monday
TTITLE19=Lightnin' Hopkins - Mr Charlie
TTITLE20=Pinetop Perkins - Back at the chicken shack
TTITLE21=Little Walter - My Babe
TTITLE22=Freedy King ( Hide Away
EXTD=YEAR: 1995
EXTT0=
EXTT1=
EXTT2=
EXTT3=
EXTT4=
EXTT5=
EXTT6=
EXTT7=
EXTT8=
EXTT9=
EXTT10=
EXTT11=
EXTT12=
EXTT13=
EXTT14=
EXTT15=
EXTT16=
EXTT17=
EXTT18=
EXTT19=
EXTT20=
EXTT21=
EXTT22=
PLAYORDER=
